<svg width="288" height="199" viewBox="0 0 288 199" fill="none" xmlns="http://www.w3.org/2000/svg">
<path d="M287.322 92.7777C286.892 41.0177 222.222 -0.652267 142.872 0.00773328C63.5322 0.667733 -0.427845 43.4077 0.0021555 95.1677C0.0121555 96.5077 0.0221543 100.208 0.0321543 100.668C0.492154 155.578 57.0721 199.588 144.522 198.858C232.502 198.128 287.822 153.188 287.362 98.2677L287.312 92.7577L287.322 92.7777ZM144.422 182.298C68.1321 182.938 5.96216 143.888 5.55216 95.0877C5.53216 93.1177 5.65215 91.1777 5.84215 89.2377L6.72216 83.2677C6.85216 82.6277 7.06215 82.0077 7.21215 81.3677C10.3521 82.2777 12.6322 82.9077 13.7322 83.1577C48.8321 91.1577 62.7822 99.4777 66.9222 102.448C69.6322 100.028 73.1922 98.6577 76.7922 98.6577H76.8022C81.0122 98.6577 84.9622 100.458 87.7722 103.598C92.1822 100.758 97.5521 100.158 102.992 102.048C106.552 103.268 109.362 105.538 111.162 108.638C114.792 107.478 118.902 107.748 123.012 109.518C130.922 112.918 132.072 120.238 131.912 124.878C141.312 125.078 148.892 132.788 148.882 142.228C148.882 144.478 148.432 146.738 147.572 148.798C150.182 150.108 154.632 151.938 158.572 151.458C162.312 150.988 163.432 149.788 163.692 149.428C163.722 149.398 163.742 149.358 163.762 149.328L153.172 137.628C151.322 135.888 150.852 134.108 151.962 132.888C152.422 132.368 153.072 132.078 153.782 132.078C155.012 132.078 156.062 132.968 156.832 133.618C162.572 138.408 169.452 145.508 169.522 145.578L169.692 145.768C169.842 145.948 170.282 146.308 171.742 146.568C172.232 146.658 172.772 146.708 173.332 146.708C174.402 146.708 177.112 146.528 179.092 144.908C179.452 144.598 179.842 144.228 180.212 143.838L180.622 143.308C182.422 141.008 180.712 138.668 180.352 138.218L167.462 123.718C167.462 123.718 166.952 123.238 166.522 122.648C165.122 120.778 165.752 119.548 166.252 118.978C166.732 118.468 167.362 118.208 168.022 118.208C169.172 118.208 170.242 118.968 171.222 119.788C174.672 122.678 179.362 127.288 183.892 131.748L186.742 134.568C187.092 134.798 188.802 135.848 191.182 135.858C193.082 135.858 195.032 135.208 196.972 133.928C199.662 132.178 200.912 130.028 200.792 127.378C200.592 125.058 198.662 123.208 198.642 123.188L180.912 105.348C179.082 103.788 178.542 101.898 179.592 100.598C180.042 100.038 180.792 99.7477 181.452 99.7277C182.602 99.7277 183.612 100.488 184.622 101.338C187.772 103.978 194.472 109.978 204.532 119.158C205.112 119.688 205.472 120.008 205.522 120.058C205.522 120.058 207.362 121.328 210.072 121.338C211.862 121.338 213.662 120.778 215.412 119.668C217.332 118.448 218.442 116.688 218.542 114.728C218.722 111.158 216.222 108.948 216.202 108.928C211.472 104.788 171.012 69.3977 161.602 62.3177C156.162 58.2177 153.142 57.1477 150.022 56.7477C149.692 56.6977 149.342 56.6977 148.972 56.6877C147.722 56.6877 146.112 56.9077 144.792 57.2577C139.992 58.5677 133.692 63.0477 129.242 66.5777C123.452 71.1677 118.032 75.4777 112.742 76.6577C111.082 77.0277 109.262 77.2577 107.382 77.2177C102.392 77.2077 97.0022 75.8277 93.9722 73.7777C92.2822 72.6377 91.0622 71.2777 90.4522 69.8377C88.8822 66.1777 91.2322 63.2377 92.3122 62.1377L104.482 48.9977C104.572 48.9077 104.652 48.8277 104.732 48.7477C102.982 49.1677 101.262 49.6377 99.4222 50.1577C95.0022 51.3877 90.5321 52.6377 85.9921 52.6377H85.9722C84.4522 52.6377 82.9521 52.5077 81.4921 52.3977L80.0322 52.2877C73.6522 51.8777 53.3721 46.7277 35.4921 39.5377C35.5121 39.5177 35.5322 39.4977 35.5522 39.4877L40.4921 35.6977C65.6221 17.5177 102.162 5.90773 142.932 5.56773C185.042 5.21773 222.832 16.9677 248.322 35.7677L253.222 39.5777C253.552 39.8477 253.842 40.1377 254.162 40.4077L252.562 41.1477C238.432 47.6077 225.242 50.7577 212.232 50.7577H212.172C199.672 50.7377 187.232 47.7377 175.212 41.8577C173.842 41.2177 161.362 35.5877 148.762 35.5677C148.442 35.5677 148.102 35.5677 147.782 35.5877C127.702 36.0277 118.952 44.7677 109.682 54.0077L97.7022 66.9077C97.4622 67.2177 97.3522 67.4077 97.3122 67.5177C98.6922 69.0777 102.292 70.1677 106.192 70.1777C107.862 70.1777 109.532 69.9877 111.162 69.6277C114.822 68.8177 119.832 64.8377 124.682 60.9977L125.022 60.7277C130.402 56.4577 135.962 52.0477 141.642 50.2577C144.142 49.4577 146.552 49.0577 148.812 49.0577H148.842C151.282 49.0577 153.182 49.5277 154.552 49.9477C157.552 50.8377 160.962 52.8177 165.942 56.5777C174.082 62.6877 202.602 87.4677 219.182 101.968C228.412 97.8977 251.802 88.2877 280.582 81.9177C280.582 81.9177 280.582 81.8777 280.602 81.8077C280.642 82.0177 280.712 82.2177 280.752 82.4377L281.602 88.3877C281.722 89.8477 281.802 91.3177 281.812 92.7977C282.222 141.598 220.712 181.678 144.412 182.318L144.422 182.298Z" fill="white"/>
<path d="M131.713 131.298C130.133 131.298 128.433 131.878 127.313 132.268C126.543 132.528 126.083 132.698 125.713 132.698H125.473L125.143 132.538C124.903 132.378 124.783 132.148 124.723 131.878C124.393 131.398 124.493 130.648 125.073 129.228C125.103 129.158 126.853 124.248 125.343 120.008C124.603 118.158 123.223 116.468 120.743 115.398C119.063 114.668 117.433 114.318 115.913 114.308C112.573 114.308 110.433 116.008 109.463 117.038C109.223 117.288 108.893 117.568 108.453 117.568C108.313 117.568 107.733 117.488 107.503 116.778C107.383 116.608 107.293 116.378 107.263 116.048C107.213 115.338 107.063 114.268 106.653 113.118C105.883 111.168 104.333 109.058 101.183 108.088C99.8926 107.688 98.6126 107.488 97.3726 107.488C90.8526 107.488 87.3126 112.858 87.1726 113.088L85.8826 115.098L85.8326 114.728C85.8326 114.728 85.7726 114.768 85.7626 114.768C85.4926 114.698 85.4526 112.408 85.4526 112.408C85.3926 111.898 85.2726 111.398 85.1226 110.918C83.9126 107.478 80.6626 105.058 76.9226 105.058C72.0926 105.058 68.1526 108.988 68.1426 113.848C68.1426 114.948 68.3726 115.998 68.7426 116.968C70.0826 120.088 73.1826 122.268 76.7826 122.278C79.0426 122.278 80.8226 120.898 82.8426 119.828C83.3926 119.538 83.9626 119.498 84.1326 119.738C84.2926 119.958 84.3426 120.208 84.3626 120.478C84.4726 120.698 84.5326 120.948 84.4926 121.258C84.2926 122.458 84.0226 125.048 84.8526 127.758C85.7426 130.348 87.6826 132.988 91.7226 134.558C92.7426 134.958 93.7626 135.148 94.7626 135.158C96.5726 135.158 98.3526 134.538 100.213 133.228C100.663 132.908 101.003 132.758 101.323 132.778C101.543 132.798 101.883 132.868 102.113 133.128C102.293 133.328 102.363 133.568 102.383 133.808C102.523 134.138 102.543 134.498 102.483 134.858C102.383 135.528 102.343 136.558 102.653 137.728C103.273 139.598 104.823 141.728 108.573 143.248C109.863 143.778 111.083 144.038 112.213 144.038C114.693 144.038 116.393 142.788 117.733 141.548C118.203 141.118 118.623 140.828 119.093 140.828C119.793 140.828 120.073 141.338 120.203 141.848C120.423 142.288 120.463 142.828 120.473 143.118C120.523 144.498 120.853 145.788 121.353 146.988C123.133 150.818 127.023 153.458 131.553 153.468C137.763 153.468 142.823 148.428 142.833 142.228C142.833 140.768 142.533 139.378 142.013 138.098C140.263 134.148 136.313 131.358 131.713 131.298Z" fill="white"/>
</svg>